<svg width="288" height="288" viewBox="0 0 288 288" fill="none" xmlns="http://www.w3.org/2000/svg">
<rect width="288" height="288" fill="#E5E5E5"/>
<g clip-path="url(#clip0)">
<rect width="288" height="288" fill="#EEC679"/>
<path d="M87.5989 285L143.5 131.754L199.401 285H87.5989Z" fill="#818181" stroke="#3D3D3D" stroke-width="6"/>
<path d="M131.104 202.5L143.5 155.713L155.896 202.5L143.5 249.287L131.104 202.5Z" fill="#70D3E8" stroke="#3D3D3D" stroke-width="6"/>
<rect x="77" y="49" width="136" height="126" rx="60" fill="#FEFCFA" stroke="#3D3D3D" stroke-width="6"/>
<path d="M216.698 84.634L214.043 86.0312L216.697 84.6339C215.556 82.4649 212.75 81.8235 210.779 83.2812L212.563 85.693L210.779 83.2812L177.429 107.951L150.186 77.0766C148.359 75.0054 145.032 75.3658 143.69 77.7805L136.825 90.1373L133.248 84.516L130.717 86.1266L133.248 84.5159C131.815 82.2642 128.621 82.0208 126.863 84.0294L128.981 85.8826L126.863 84.0294L102.795 111.535L83.8757 70.2559C82.318 66.8572 77.3641 67.2632 76.3804 70.8701L71.2106 89.826L3.54382 205.177L9.99029 125.241C9.99676 125.161 10 125.08 10 125V92.5045L75.4096 43.6914L146.953 19.6802L225.382 48.6009L282.893 103.212L277.358 115.561C277.108 116.118 276.989 116.725 277.01 117.336L280.048 204.999L216.698 84.634ZM135.193 93.0745C135.194 93.073 135.195 93.0716 135.196 93.0701L135.193 93.0745L136.942 94.0458L135.193 93.0745ZM9.19617 93.1044L9.19962 93.1018C9.19846 93.1027 9.1973 93.1035 9.19615 93.1044L7.99998 91.5015L9.19617 93.1044ZM225.769 48.7435C225.768 48.7432 225.767 48.7428 225.766 48.7425L225.769 48.7435L226.461 46.867L225.769 48.7435ZM283.473 101.919L283.47 101.926C283.471 101.924 283.472 101.921 283.473 101.919Z" fill="#70D3E8" stroke="#3D3D3D" stroke-width="6" stroke-linejoin="round"/>
<path d="M212.5 8.63839L220.966 46.1828L212.5 129.369L204.034 46.1828L212.5 8.63839Z" fill="#545454" stroke="#3D3D3D" stroke-width="6"/>
<path d="M77.5 8.63839L85.9659 46.1828L77.5 129.369L69.0341 46.1828L77.5 8.63839Z" fill="#545454" stroke="#3D3D3D" stroke-width="6"/>
<line x1="119" y1="117" x2="119" y2="149" stroke="#3D3D3D" stroke-width="10" stroke-linecap="round"/>
<line x1="171" y1="117" x2="171" y2="149" stroke="#3D3D3D" stroke-width="10" stroke-linecap="round"/>
</g>
<defs>
<clipPath id="clip0">
<rect width="288" height="288" fill="white"/>
</clipPath>
</defs>
</svg>
